<svg version="1.1" id="Layer_1" xmlns="http://www.w3.org/2000/svg" xmlns:xlink="http://www.w3.org/1999/xlink" x="0px" y="0px"
	 width="100%" viewBox="0 0 76 76" enable-background="new 0 0 76 76" xml:space="preserve">
<path fill="#000000" opacity="1.000000" stroke="none" 
	d="
M77.000000,44.000000 
	C77.000000,54.966946 77.000000,65.933891 77.000000,76.950417 
	C51.775925,76.950417 26.551735,76.950417 1.000000,76.950417 
	C1.000000,64.981087 1.000000,52.959202 1.331824,40.600525 
	C3.220917,42.880245 4.778185,45.496754 6.777514,48.856007 
	C7.053832,48.878529 8.491566,48.995708 9.956802,49.526459 
	C9.149497,54.265472 12.043718,54.157230 14.946804,54.500542 
	C14.723371,59.311543 17.420248,57.898422 20.161251,57.687180 
	C20.161251,52.885387 20.161251,48.449810 20.563595,44.010406 
	C22.312840,43.949699 23.659740,43.892822 25.472530,43.885967 
	C34.956734,43.902645 43.975044,43.869297 53.396439,43.889008 
	C55.145947,43.966156 56.492371,43.990242 57.903469,44.474808 
	C57.968140,49.173786 57.968140,53.412292 57.968140,57.730843 
	C59.912083,57.730843 61.319843,57.730843 62.803265,57.730843 
	C62.912506,56.349049 63.002174,55.214817 63.505539,54.049534 
	C65.171455,53.909607 66.423676,53.800732 67.808212,53.680347 
	C67.910904,51.938400 67.996307,50.489841 68.494110,49.025654 
	C73.225403,49.822803 73.114449,46.863464 73.533875,44.019192 
	C74.945900,44.006966 75.972946,44.003483 77.000000,44.000000 
z"/>
<path fill="#000000" opacity="1.000000" stroke="none" 
	d="
M1.000000,37.000000 
	C1.000000,25.036320 1.000000,13.072639 1.000000,1.054479 
	C26.220243,1.054479 51.440628,1.054479 77.000000,1.054479 
	C77.000000,11.685172 77.000000,22.373928 76.615662,33.531311 
	C75.206642,33.995899 74.181953,33.991856 73.095421,33.568241 
	C72.937881,31.880274 72.842201,30.611877 72.733673,29.173288 
	C70.982140,29.088566 69.527809,29.018219 68.043106,28.527470 
	C67.940781,26.840319 67.868805,25.573566 67.788643,24.162634 
	C66.020432,24.078716 64.567032,24.009737 63.064304,23.515539 
	C63.497505,18.702625 60.592941,20.162540 57.833366,20.181229 
	C57.833366,24.934021 57.833366,29.466906 57.375153,33.999870 
	C44.666836,33.999897 32.416733,33.999844 20.094797,33.538437 
	C20.022963,28.792654 20.022963,24.508228 20.022963,19.980003 
	C18.050320,20.073544 16.610041,20.141840 15.154088,20.210880 
	C15.052472,21.634275 14.970217,22.786478 14.473363,23.963924 
	C12.800208,24.068958 11.541653,24.148748 10.148830,24.237051 
	C10.063387,25.996325 9.992959,27.446407 9.502125,28.937286 
	C7.835603,29.063936 6.589489,29.149790 5.343375,29.235643 
	C5.715338,29.671709 6.087301,30.107777 6.459265,30.543844 
	C4.639510,32.695896 2.819755,34.847946 1.000000,37.000000 
z"/>
<path fill="#337AA9" opacity="1.000000" stroke="none" 
	d="
M1.000000,37.333332 
	C2.819755,34.847946 4.639510,32.695896 6.459265,30.543844 
	C6.087301,30.107777 5.715338,29.671709 5.343375,29.235643 
	C6.589489,29.149790 7.835603,29.063936 9.517771,29.394939 
	C10.000626,32.827789 10.047427,35.843784 10.044479,38.930286 
	C9.994730,39.000797 9.894911,39.141590 9.452312,39.114685 
	C6.339808,39.058517 3.669904,39.029259 1.000000,39.000000 
	C1.000000,38.555553 1.000000,38.111111 1.000000,37.333332 
z"/>
<path fill="#26628A" opacity="1.000000" stroke="none" 
	d="
M1.000000,39.250000 
	C3.669904,39.029259 6.339808,39.058517 9.477376,39.558125 
	C9.939793,43.056610 9.934546,46.084751 9.929299,49.112888 
	C8.491566,48.995708 7.053832,48.878529 6.777514,48.856007 
	C4.778185,45.496754 3.220917,42.880245 1.331824,40.131866 
	C1.000000,40.000000 1.000000,39.500000 1.000000,39.250000 
z"/>
<path fill="#4B4444" opacity="1.000000" stroke="none" 
	d="
M77.000000,43.583336 
	C75.972946,44.003483 74.945900,44.006966 73.451172,43.672844 
	C72.716148,41.939781 72.448814,40.544315 72.381866,39.093292 
	C72.582253,39.037731 72.979057,38.912571 73.380646,38.932758 
	C74.854820,38.968632 75.927406,38.984314 77.000000,39.000000 
	C77.000000,40.388889 77.000000,41.777779 77.000000,43.583336 
z"/>
<path fill="#655D5D" opacity="1.000000" stroke="none" 
	d="
M77.000000,38.583336 
	C75.927406,38.984314 74.854820,38.968632 73.385658,38.522739 
	C73.045151,36.724293 73.101212,35.356052 73.157272,33.987812 
	C74.181953,33.991856 75.206642,33.995899 76.615662,33.999969 
	C77.000000,35.388889 77.000000,36.777779 77.000000,38.583336 
z"/>
<path fill="#4B4848" opacity="1.000000" stroke="none" 
	d="
M52.993359,43.835945 
	C43.975044,43.869297 34.956734,43.902645 25.470837,43.492897 
	C24.999067,41.728500 24.994881,40.407200 25.459972,39.064209 
	C34.955936,39.056976 43.982624,39.071434 53.007271,39.483776 
	C53.001270,41.199753 52.997314,42.517853 52.993359,43.835945 
z"/>
<path fill="#0077C6" opacity="1.000000" stroke="none" 
	d="
M20.161251,44.014236 
	C20.161251,48.449810 20.161251,52.885387 20.161251,57.687180 
	C17.420248,57.898422 14.723371,59.311543 14.966457,54.031456 
	C14.984353,48.440884 15.019729,43.737339 15.451454,39.023857 
	C17.177258,38.986080 18.506712,38.958241 19.934563,38.945229 
	C20.032959,38.960052 20.210392,39.050182 20.136959,39.459991 
	C20.096104,41.251278 20.128677,42.632755 20.161251,44.014236 
z"/>
<path fill="#0077C6" opacity="1.000000" stroke="none" 
	d="
M63.091843,54.080585 
	C63.002174,55.214817 62.912506,56.349049 62.803265,57.730843 
	C61.319843,57.730843 59.912083,57.730843 57.968140,57.730843 
	C57.968140,53.412292 57.968140,49.173786 57.960327,44.064766 
	C57.898235,41.812946 57.843952,40.431644 57.878372,39.005249 
	C57.967075,38.960152 58.163860,38.930389 58.542789,38.950325 
	C59.929386,38.991455 60.937057,39.012653 61.955269,39.495136 
	C62.341156,44.664478 62.716499,49.372532 63.091843,54.080585 
z"/>
<path fill="#1D70A7" opacity="1.000000" stroke="none" 
	d="
M63.505539,54.049534 
	C62.716499,49.372532 62.341156,44.664478 61.970680,39.467064 
	C61.975544,38.977707 62.018696,38.932209 62.432129,38.949013 
	C64.227722,38.983196 65.609879,39.000576 66.993469,39.460815 
	C67.357170,42.949547 67.719437,45.995419 68.081703,49.041286 
	C67.996307,50.489841 67.910904,51.938400 67.808212,53.680347 
	C66.423676,53.800732 65.171455,53.909607 63.505539,54.049534 
z"/>
<path fill="#1D70A7" opacity="1.000000" stroke="none" 
	d="
M15.055104,39.033794 
	C15.019729,43.737339 14.984353,48.440884 14.929325,53.613510 
	C12.043718,54.157230 9.149497,54.265472 9.956802,49.526459 
	C9.934546,46.084751 9.939793,43.056610 9.919975,39.585030 
	C9.894911,39.141590 9.994730,39.000797 10.449352,38.964817 
	C12.263083,38.929962 13.622192,38.931087 15.003116,38.955162 
	C15.024931,38.978115 15.055104,39.033794 15.055104,39.033794 
z"/>
<path fill="#26628A" opacity="1.000000" stroke="none" 
	d="
M68.494110,49.025654 
	C67.719437,45.995419 67.357170,42.949547 66.992905,39.447876 
	C66.990898,38.992077 66.993729,38.967743 67.425392,38.977058 
	C69.298531,39.040535 70.740005,39.094696 72.181480,39.148853 
	C72.448814,40.544315 72.716148,41.939781 73.066193,43.681587 
	C73.114449,46.863464 73.225403,49.822803 68.494110,49.025654 
z"/>
<path fill="#4B4545" opacity="1.000000" stroke="none" 
	d="
M20.563595,44.010406 
	C20.128677,42.632755 20.096104,41.251278 20.535614,39.445362 
	C22.335367,39.042583 23.663031,39.064240 24.990696,39.085899 
	C24.994881,40.407200 24.999067,41.728500 25.004948,43.442871 
	C23.659740,43.892822 22.312840,43.949699 20.563595,44.010406 
z"/>
<path fill="#4B4545" opacity="1.000000" stroke="none" 
	d="
M57.789665,39.050346 
	C57.843952,40.431644 57.898235,41.812946 57.895660,43.604286 
	C56.492371,43.990242 55.145947,43.966156 53.396439,43.889008 
	C52.997314,42.517853 53.001270,41.199753 53.404987,39.462814 
	C55.133053,39.046097 56.461357,39.048222 57.789665,39.050346 
z"/>
<path fill="#655D5D" opacity="1.000000" stroke="none" 
	d="
M57.878372,39.005249 
	C56.461357,39.048222 55.133053,39.046097 53.407028,39.064934 
	C43.982624,39.071434 34.955936,39.056976 25.459972,39.064209 
	C23.663031,39.064240 22.335367,39.042583 20.609047,39.035553 
	C20.210392,39.050182 20.032959,38.960052 19.997175,38.540268 
	C20.029804,36.746922 20.098217,35.373356 20.166632,33.999794 
	C32.416733,33.999844 44.666836,33.999897 57.438705,34.409134 
	C58.028271,36.189011 58.096066,37.559700 58.163860,38.930389 
	C58.163860,38.930389 57.967075,38.960152 57.878372,39.005249 
z"/>
<path fill="#0099FF" opacity="1.000000" stroke="none" 
	d="
M20.094797,33.538437 
	C20.098217,35.373356 20.029804,36.746922 19.898779,38.525444 
	C18.506712,38.958241 17.177258,38.986080 15.451454,39.023857 
	C15.055104,39.033794 15.024931,38.978115 15.009346,38.495529 
	C14.958495,33.321518 14.923229,28.630098 14.887962,23.938679 
	C14.970217,22.786478 15.052472,21.634275 15.154088,20.210880 
	C16.610041,20.141840 18.050320,20.073544 20.022963,19.980003 
	C20.022963,24.508228 20.022963,28.792654 20.094797,33.538437 
z"/>
<path fill="#0099FF" opacity="1.000000" stroke="none" 
	d="
M58.542789,38.950325 
	C58.096066,37.559700 58.028271,36.189011 57.896919,34.409058 
	C57.833366,29.466906 57.833366,24.934021 57.833366,20.181229 
	C60.592941,20.162540 63.497505,18.702625 62.894650,23.899216 
	C62.522449,29.449480 62.270573,34.190845 62.018692,38.932209 
	C62.018696,38.932209 61.975544,38.977707 61.960136,39.005775 
	C60.937057,39.012653 59.929386,38.991455 58.542789,38.950325 
z"/>
<path fill="#268ACE" opacity="1.000000" stroke="none" 
	d="
M62.432129,38.949013 
	C62.270573,34.190845 62.522449,29.449480 62.943981,24.324436 
	C64.567032,24.009737 66.020432,24.078716 67.788643,24.162634 
	C67.868805,25.573566 67.940781,26.840319 67.844589,28.883083 
	C67.448860,32.761982 67.221291,35.864861 66.993729,38.967743 
	C66.993729,38.967743 66.990898,38.992077 66.991470,39.005016 
	C65.609879,39.000576 64.227722,38.983196 62.432129,38.949013 
z"/>
<path fill="#268ACE" opacity="1.000000" stroke="none" 
	d="
M14.473363,23.963924 
	C14.923229,28.630098 14.958495,33.321518 14.987532,38.472576 
	C13.622192,38.931087 12.263083,38.929962 10.499102,38.894306 
	C10.047427,35.843784 10.000626,32.827789 9.938178,29.354145 
	C9.992959,27.446407 10.063387,25.996325 10.148830,24.237051 
	C11.541653,24.148748 12.800208,24.068958 14.473363,23.963924 
z"/>
<path fill="#337AA9" opacity="1.000000" stroke="none" 
	d="
M67.425392,38.977058 
	C67.221291,35.864861 67.448860,32.761982 67.874954,29.303486 
	C69.527809,29.018219 70.982140,29.088566 72.733673,29.173288 
	C72.842201,30.611877 72.937881,31.880274 73.095421,33.568241 
	C73.101212,35.356052 73.045151,36.724293 72.984070,38.502552 
	C72.979057,38.912571 72.582253,39.037731 72.381866,39.093292 
	C70.740005,39.094696 69.298531,39.040535 67.425392,38.977058 
z"/>
</svg>